# xmcd
#
# Track frame offsets:
#	150
#	16942
#	26048
#	37689
#	48145
#	63003
#	76903
#	88421
#	104668
#	115745
#
# Disc length: 1721 seconds
#
# Revision: 1
# Processed by: cddbd v1.5.2PL0 Copyright (c) Steve Scherf et al.
# Submitted via: audiograbber 1.83.01
#
DISCID=6f06b70a
DTITLE=Johnny Paycheck - 11 Months And 29 Days
DYEAR=1976
DGENRE=Country
TTITLE0=11 Months And 29 Days
TTITLE1=The Woman Who Put Me Here
TTITLE2=The Feminine Touch
TTITLE3=I Sleep With Her Memory Every Night
TTITLE4=I Can See Me Lovin' You Again
TTITLE5=Gone At Last (with Charnissa)
TTITLE6=Closer Than I've Ever Been Before
TTITLE7=I've Seen Better Days
TTITLE8=Live With Me
TTITLE9=That's What The Outlaws In Texas Want To Hear
EXTD=
EXTT0=
EXTT1=
EXTT2=
EXTT3=
EXTT4=
EXTT5=
EXTT6=
EXTT7=
EXTT8=
EXTT9=
PLAYORDER=
